<?xml version="1.0" encoding="UTF-8" standalone="no"?>
<!DOCTYPE svg PUBLIC "-//W3C//DTD SVG 1.1//EN"
 "http://www.w3.org/Graphics/SVG/1.1/DTD/svg11.dtd">
<!-- Generated by graphviz version 2.38.0 (20140413.2041)
 -->
<!-- Title: FSM Pages: 1 -->
<svg width="576pt" height="203pt"
 viewBox="0.00 0.00 576.00 203.31" xmlns="http://www.w3.org/2000/svg" xmlns:xlink="http://www.w3.org/1999/xlink">
<g id="graph0" class="graph" transform="scale(0.675689 0.675689) rotate(0) translate(4 296.892)">
<title>FSM</title>
<polygon fill="white" stroke="none" points="-4,4 -4,-296.892 848.463,-296.892 848.463,4 -4,4"/>
<!-- day0 -->
<g id="node1" class="node"><title>day0</title>
<ellipse fill="none" stroke="black" cx="73.1975" cy="-176.394" rx="28.6832" ry="28.6832"/>
<ellipse fill="none" stroke="black" cx="73.1975" cy="-176.394" rx="32.6952" ry="32.6952"/>
<text text-anchor="middle" x="73.1975" y="-172.694" font-family="Times New Roman,serif" font-size="14.00">day0</text>
</g>
<!-- day1 -->
<g id="node3" class="node"><title>day1</title>
<ellipse fill="none" stroke="black" cx="209.392" cy="-176.394" rx="28.6953" ry="28.6953"/>
<text text-anchor="middle" x="209.392" y="-172.694" font-family="Times New Roman,serif" font-size="14.00">day1</text>
</g>
<!-- day0&#45;&gt;day1 -->
<g id="edge2" class="edge"><title>day0&#45;&gt;day1</title>
<path fill="none" stroke="black" d="M106,-176.394C125.272,-176.394 149.976,-176.394 170.289,-176.394"/>
<polygon fill="black" stroke="black" points="170.46,-179.895 180.46,-176.394 170.46,-172.895 170.46,-179.895"/>
<text text-anchor="middle" x="143.295" y="-180.194" font-family="Times New Roman,serif" font-size="14.00">[&#39;next&#39;]</text>
</g>
<!-- qi -->
<g id="node2" class="node"><title>qi</title>
<ellipse fill="black" stroke="black" cx="1.8" cy="-176.394" rx="1.8" ry="1.8"/>
</g>
<!-- qi&#45;&gt;day0 -->
<g id="edge1" class="edge"><title>qi&#45;&gt;day0</title>
<path fill="none" stroke="black" d="M3.78102,-176.394C7.02443,-176.394 17.8893,-176.394 30.035,-176.394"/>
<polygon fill="black" stroke="black" points="30.3993,-179.895 40.3993,-176.394 30.3992,-172.895 30.3993,-179.895"/>
</g>
<!-- hands -->
<g id="node4" class="node"><title>hands</title>
<ellipse fill="none" stroke="black" cx="451.384" cy="-260.394" rx="32.4942" ry="32.4942"/>
<text text-anchor="middle" x="451.384" y="-256.694" font-family="Times New Roman,serif" font-size="14.00">hands</text>
</g>
<!-- day1&#45;&gt;hands -->
<g id="edge3" class="edge"><title>day1&#45;&gt;hands</title>
<path fill="none" stroke="black" d="M235.826,-187.373C242.361,-190.089 249.405,-192.925 255.99,-195.394 308.865,-215.221 370.882,-235.443 410.391,-247.953"/>
<polygon fill="black" stroke="black" points="409.587,-251.369 420.177,-251.039 411.692,-244.693 409.587,-251.369"/>
<text text-anchor="middle" x="313.49" y="-239.194" font-family="Times New Roman,serif" font-size="14.00">[&#39;practice_anatomy&#39;]</text>
</g>
<!-- dream -->
<g id="node5" class="node"><title>dream</title>
<ellipse fill="none" stroke="black" cx="451.384" cy="-176.394" rx="33.2948" ry="33.2948"/>
<text text-anchor="middle" x="451.384" y="-172.694" font-family="Times New Roman,serif" font-size="14.00">dream</text>
</g>
<!-- day1&#45;&gt;dream -->
<g id="edge4" class="edge"><title>day1&#45;&gt;dream</title>
<path fill="none" stroke="black" d="M238.392,-176.394C280.093,-176.394 358.837,-176.394 407.731,-176.394"/>
<polygon fill="black" stroke="black" points="407.985,-179.895 417.985,-176.394 407.985,-172.895 407.985,-179.895"/>
<text text-anchor="middle" x="313.49" y="-180.194" font-family="Times New Roman,serif" font-size="14.00">[&#39;interpret_dream&#39;]</text>
</g>
<!-- colorringbook -->
<g id="node6" class="node"><title>colorringbook</title>
<ellipse fill="none" stroke="black" cx="451.384" cy="-62.3945" rx="62.2891" ry="62.2891"/>
<text text-anchor="middle" x="451.384" y="-58.6945" font-family="Times New Roman,serif" font-size="14.00">colorringbook</text>
</g>
<!-- day1&#45;&gt;colorringbook -->
<g id="edge5" class="edge"><title>day1&#45;&gt;colorringbook</title>
<path fill="none" stroke="black" d="M235.622,-164.41C270.784,-147.708 335.75,-116.848 385.055,-93.4269"/>
<polygon fill="black" stroke="black" points="386.85,-96.4493 394.381,-88.9971 383.846,-90.1263 386.85,-96.4493"/>
<text text-anchor="middle" x="313.49" y="-159.194" font-family="Times New Roman,serif" font-size="14.00">[&#39;coloring_book&#39;]</text>
</g>
<!-- breakfastday1 -->
<g id="node7" class="node"><title>breakfastday1</title>
<ellipse fill="none" stroke="black" cx="650.523" cy="-176.394" rx="61.99" ry="61.99"/>
<text text-anchor="middle" x="650.523" y="-172.694" font-family="Times New Roman,serif" font-size="14.00">breakfastday1</text>
</g>
<!-- hands&#45;&gt;breakfastday1 -->
<g id="edge6" class="edge"><title>hands&#45;&gt;breakfastday1</title>
<path fill="none" stroke="black" d="M481.473,-248C508.298,-236.57 549.09,-219.188 583.767,-204.413"/>
<polygon fill="black" stroke="black" points="585.541,-207.461 593.369,-200.321 582.797,-201.022 585.541,-207.461"/>
<text text-anchor="middle" x="551.279" y="-230.194" font-family="Times New Roman,serif" font-size="14.00">[&#39;next&#39;]</text>
</g>
<!-- dream&#45;&gt;breakfastday1 -->
<g id="edge7" class="edge"><title>dream&#45;&gt;breakfastday1</title>
<path fill="none" stroke="black" d="M484.938,-176.394C510.299,-176.394 546.451,-176.394 578.416,-176.394"/>
<polygon fill="black" stroke="black" points="578.628,-179.895 588.628,-176.394 578.628,-172.895 578.628,-179.895"/>
<text text-anchor="middle" x="551.279" y="-180.194" font-family="Times New Roman,serif" font-size="14.00">[&#39;next&#39;]</text>
</g>
<!-- colorringbook&#45;&gt;breakfastday1 -->
<g id="edge8" class="edge"><title>colorringbook&#45;&gt;breakfastday1</title>
<path fill="none" stroke="black" d="M505.733,-93.2445C531.14,-107.937 561.665,-125.589 588.042,-140.842"/>
<polygon fill="black" stroke="black" points="586.406,-143.939 596.815,-145.915 589.91,-137.879 586.406,-143.939"/>
<text text-anchor="middle" x="551.279" y="-134.194" font-family="Times New Roman,serif" font-size="14.00">[&#39;next&#39;]</text>
</g>
<!-- day2 -->
<g id="node8" class="node"><title>day2</title>
<ellipse fill="none" stroke="black" cx="815.865" cy="-176.394" rx="28.6953" ry="28.6953"/>
<text text-anchor="middle" x="815.865" y="-172.694" font-family="Times New Roman,serif" font-size="14.00">day2</text>
</g>
<!-- breakfastday1&#45;&gt;day2 -->
<g id="edge9" class="edge"><title>breakfastday1&#45;&gt;day2</title>
<path fill="none" stroke="black" d="M712.346,-176.394C733.928,-176.394 757.591,-176.394 776.741,-176.394"/>
<polygon fill="black" stroke="black" points="776.873,-179.895 786.873,-176.394 776.873,-172.895 776.873,-179.895"/>
<text text-anchor="middle" x="749.768" y="-180.194" font-family="Times New Roman,serif" font-size="14.00">[&#39;next&#39;]</text>
</g>
</g>
</svg>
