<?xml version="1.0" encoding="UTF-8" standalone="no"?>
<!DOCTYPE svg PUBLIC "-//W3C//DTD SVG 1.1//EN"
 "http://www.w3.org/Graphics/SVG/1.1/DTD/svg11.dtd">
<!-- Generated by graphviz version 2.38.0 (20140413.2041)
 -->
<!-- Title: FSM Pages: 1 -->
<svg width="576pt" height="116pt"
 viewBox="0.00 0.00 576.00 115.62" xmlns="http://www.w3.org/2000/svg" xmlns:xlink="http://www.w3.org/1999/xlink">
<g id="graph0" class="graph" transform="scale(0.575105 0.575105) rotate(0) translate(4 197.039)">
<title>FSM</title>
<polygon fill="white" stroke="none" points="-4,4 -4,-197.039 997.556,-197.039 997.556,4 -4,4"/>
<!-- day10 -->
<g id="node1" class="node"><title>day10</title>
<ellipse fill="none" stroke="black" cx="77.0971" cy="-47.6943" rx="32.4945" ry="32.4945"/>
<ellipse fill="none" stroke="black" cx="77.0971" cy="-47.6943" rx="36.4942" ry="36.4942"/>
<text text-anchor="middle" x="77.0971" y="-43.9943" font-family="Times New Roman,serif" font-size="14.00">day10</text>
</g>
<!-- checkonsteven -->
<g id="node3" class="node"><title>checkonsteven</title>
<ellipse fill="none" stroke="black" cx="336.939" cy="-128.694" rx="64.189" ry="64.189"/>
<text text-anchor="middle" x="336.939" y="-124.994" font-family="Times New Roman,serif" font-size="14.00">checkonsteven</text>
</g>
<!-- day10&#45;&gt;checkonsteven -->
<g id="edge2" class="edge"><title>day10&#45;&gt;checkonsteven</title>
<path fill="none" stroke="black" d="M112.071,-58.367C150.98,-70.5902 215.78,-90.9471 265.679,-106.623"/>
<polygon fill="black" stroke="black" points="264.859,-110.034 275.448,-109.692 266.957,-103.355 264.859,-110.034"/>
<text text-anchor="middle" x="193.094" y="-105.494" font-family="Times New Roman,serif" font-size="14.00">[&#39;steven_points_+_1&#39;]</text>
</g>
<!-- day10space -->
<g id="node4" class="node"><title>day10space</title>
<ellipse fill="none" stroke="black" cx="530.228" cy="-63.6943" rx="53.8905" ry="53.8905"/>
<text text-anchor="middle" x="530.228" y="-59.9943" font-family="Times New Roman,serif" font-size="14.00">day10space</text>
</g>
<!-- day10&#45;&gt;day10space -->
<g id="edge3" class="edge"><title>day10&#45;&gt;day10space</title>
<path fill="none" stroke="black" d="M113.572,-44.3712C173.15,-39.362 297.029,-31.3983 401.283,-40.6943 422.919,-42.6236 446.372,-46.3534 467.217,-50.2571"/>
<polygon fill="black" stroke="black" points="466.741,-53.7295 477.222,-52.1803 468.062,-46.8553 466.741,-53.7295"/>
<text text-anchor="middle" x="336.939" y="-44.4943" font-family="Times New Roman,serif" font-size="14.00">[&#39;space&#39;]</text>
</g>
<!-- qi -->
<g id="node2" class="node"><title>qi</title>
<ellipse fill="black" stroke="black" cx="1.8" cy="-47.6943" rx="1.8" ry="1.8"/>
</g>
<!-- qi&#45;&gt;day10 -->
<g id="edge1" class="edge"><title>qi&#45;&gt;day10</title>
<path fill="none" stroke="black" d="M3.62316,-47.6943C6.65126,-47.6943 17.6501,-47.6943 30.197,-47.6943"/>
<polygon fill="black" stroke="black" points="30.4685,-51.1944 40.4684,-47.6943 30.4684,-44.1944 30.4685,-51.1944"/>
</g>
<!-- checkonsteven&#45;&gt;day10space -->
<g id="edge4" class="edge"><title>checkonsteven&#45;&gt;day10space</title>
<path fill="none" stroke="black" d="M398.201,-108.217C420.911,-100.5 446.72,-91.7306 469.391,-84.0269"/>
<polygon fill="black" stroke="black" points="470.555,-87.328 478.897,-80.7967 468.303,-80.7002 470.555,-87.328"/>
<text text-anchor="middle" x="438.783" y="-103.494" font-family="Times New Roman,serif" font-size="14.00">[&#39;next&#39;]</text>
</g>
<!-- continueday10 -->
<g id="node5" class="node"><title>continueday10</title>
<ellipse fill="none" stroke="black" cx="789.868" cy="-63.6943" rx="63.8893" ry="63.8893"/>
<text text-anchor="middle" x="789.868" y="-59.9943" font-family="Times New Roman,serif" font-size="14.00">continueday10</text>
</g>
<!-- day10space&#45;&gt;continueday10 -->
<g id="edge5" class="edge"><title>day10space&#45;&gt;continueday10</title>
<path fill="none" stroke="black" d="M584.299,-63.6943C622.267,-63.6943 673.85,-63.6943 715.719,-63.6943"/>
<polygon fill="black" stroke="black" points="715.864,-67.1944 725.864,-63.6943 715.864,-60.1944 715.864,-67.1944"/>
<text text-anchor="middle" x="655.173" y="-67.4943" font-family="Times New Roman,serif" font-size="14.00">[&#39;lukas&#39;, &#39;pumpkin&#39;]</text>
</g>
<!-- day11 -->
<g id="node6" class="node"><title>day11</title>
<ellipse fill="none" stroke="black" cx="961.059" cy="-63.6943" rx="32.4942" ry="32.4942"/>
<text text-anchor="middle" x="961.059" y="-59.9943" font-family="Times New Roman,serif" font-size="14.00">day11</text>
</g>
<!-- continueday10&#45;&gt;day11 -->
<g id="edge6" class="edge"><title>continueday10&#45;&gt;day11</title>
<path fill="none" stroke="black" d="M853.868,-63.6943C875.371,-63.6943 898.868,-63.6943 918.281,-63.6943"/>
<polygon fill="black" stroke="black" points="918.316,-67.1944 928.316,-63.6943 918.316,-60.1944 918.316,-67.1944"/>
<text text-anchor="middle" x="891.062" y="-67.4943" font-family="Times New Roman,serif" font-size="14.00">[&#39;next&#39;]</text>
</g>
</g>
</svg>
