<?xml version="1.0" encoding="UTF-8" standalone="no"?>
<!DOCTYPE svg PUBLIC "-//W3C//DTD SVG 1.1//EN"
 "http://www.w3.org/Graphics/SVG/1.1/DTD/svg11.dtd">
<!-- Generated by graphviz version 2.38.0 (20140413.2041)
 -->
<!-- Title: FSM Pages: 1 -->
<svg width="576pt" height="129pt"
 viewBox="0.00 0.00 576.00 129.32" xmlns="http://www.w3.org/2000/svg" xmlns:xlink="http://www.w3.org/1999/xlink">
<g id="graph0" class="graph" transform="scale(0.700934 0.700934) rotate(0) translate(4 180.493)">
<title>FSM</title>
<polygon fill="white" stroke="none" points="-4,4 -4,-180.493 817.76,-180.493 817.76,4 -4,4"/>
<!-- day2 -->
<g id="node1" class="node"><title>day2</title>
<ellipse fill="none" stroke="black" cx="73.1975" cy="-112.145" rx="28.6832" ry="28.6832"/>
<ellipse fill="none" stroke="black" cx="73.1975" cy="-112.145" rx="32.6952" ry="32.6952"/>
<text text-anchor="middle" x="73.1975" y="-108.445" font-family="Times New Roman,serif" font-size="14.00">day2</text>
</g>
<!-- stay -->
<g id="node3" class="node"><title>stay</title>
<ellipse fill="none" stroke="black" cx="348.737" cy="-151.145" rx="25.1964" ry="25.1964"/>
<text text-anchor="middle" x="348.737" y="-147.445" font-family="Times New Roman,serif" font-size="14.00">stay</text>
</g>
<!-- day2&#45;&gt;stay -->
<g id="edge2" class="edge"><title>day2&#45;&gt;stay</title>
<path fill="none" stroke="black" d="M105.401,-117.287C111.497,-118.261 117.843,-119.253 123.795,-120.145 190.852,-130.193 269.387,-140.797 313.371,-146.63"/>
<polygon fill="black" stroke="black" points="313.147,-150.131 323.52,-147.973 314.065,-143.192 313.147,-150.131"/>
<text text-anchor="middle" x="171.795" y="-137.945" font-family="Times New Roman,serif" font-size="14.00">[&#39;draw&#39;]</text>
</g>
<!-- follow -->
<g id="node4" class="node"><title>follow</title>
<ellipse fill="none" stroke="black" cx="271.592" cy="-69.1448" rx="33.5952" ry="33.5952"/>
<text text-anchor="middle" x="271.592" y="-65.4448" font-family="Times New Roman,serif" font-size="14.00">follow</text>
</g>
<!-- day2&#45;&gt;follow -->
<g id="edge3" class="edge"><title>day2&#45;&gt;follow</title>
<path fill="none" stroke="black" d="M105.317,-105.331C138.535,-98.0581 191.371,-86.4899 228.337,-78.3964"/>
<polygon fill="black" stroke="black" points="229.293,-81.7701 238.313,-76.2122 227.795,-74.9321 229.293,-81.7701"/>
<text text-anchor="middle" x="171.795" y="-104.945" font-family="Times New Roman,serif" font-size="14.00">[&#39;follow_doctor&#39;]</text>
</g>
<!-- qi -->
<g id="node2" class="node"><title>qi</title>
<ellipse fill="black" stroke="black" cx="1.8" cy="-112.145" rx="1.8" ry="1.8"/>
</g>
<!-- qi&#45;&gt;day2 -->
<g id="edge1" class="edge"><title>qi&#45;&gt;day2</title>
<path fill="none" stroke="black" d="M3.78102,-112.145C7.02443,-112.145 17.8893,-112.145 30.035,-112.145"/>
<polygon fill="black" stroke="black" points="30.3993,-115.645 40.3993,-112.145 30.3992,-108.645 30.3993,-115.645"/>
</g>
<!-- lunchday1 -->
<g id="node5" class="node"><title>lunchday1</title>
<ellipse fill="none" stroke="black" cx="633.47" cy="-123.145" rx="48.1917" ry="48.1917"/>
<text text-anchor="middle" x="633.47" y="-119.445" font-family="Times New Roman,serif" font-size="14.00">lunchday1</text>
</g>
<!-- stay&#45;&gt;lunchday1 -->
<g id="edge4" class="edge"><title>stay&#45;&gt;lunchday1</title>
<path fill="none" stroke="black" d="M374.333,-148.709C418.784,-144.307 513.58,-134.919 575.092,-128.827"/>
<polygon fill="black" stroke="black" points="575.811,-132.273 585.418,-127.804 575.121,-125.307 575.811,-132.273"/>
<text text-anchor="middle" x="451.229" y="-150.945" font-family="Times New Roman,serif" font-size="14.00">[&#39;next&#39;]</text>
</g>
<!-- continueday1 -->
<g id="node6" class="node"><title>continueday1</title>
<ellipse fill="none" stroke="black" cx="451.229" cy="-59.1448" rx="59.2899" ry="59.2899"/>
<text text-anchor="middle" x="451.229" y="-55.4448" font-family="Times New Roman,serif" font-size="14.00">continueday1</text>
</g>
<!-- follow&#45;&gt;continueday1 -->
<g id="edge5" class="edge"><title>follow&#45;&gt;continueday1</title>
<path fill="none" stroke="black" d="M305.588,-67.2873C326.935,-66.0855 355.517,-64.4765 381.635,-63.0063"/>
<polygon fill="black" stroke="black" points="382.095,-66.486 391.882,-62.4294 381.702,-59.497 382.095,-66.486"/>
<text text-anchor="middle" x="348.737" y="-70.9448" font-family="Times New Roman,serif" font-size="14.00">[&#39;next&#39;]</text>
</g>
<!-- day3 -->
<g id="node7" class="node"><title>day3</title>
<ellipse fill="none" stroke="black" cx="785.163" cy="-123.145" rx="28.6953" ry="28.6953"/>
<text text-anchor="middle" x="785.163" y="-119.445" font-family="Times New Roman,serif" font-size="14.00">day3</text>
</g>
<!-- lunchday1&#45;&gt;day3 -->
<g id="edge7" class="edge"><title>lunchday1&#45;&gt;day3</title>
<path fill="none" stroke="black" d="M681.834,-123.145C702.599,-123.145 726.642,-123.145 746.203,-123.145"/>
<polygon fill="black" stroke="black" points="746.27,-126.645 756.27,-123.145 746.27,-119.645 746.27,-126.645"/>
<text text-anchor="middle" x="719.065" y="-126.945" font-family="Times New Roman,serif" font-size="14.00">[&#39;next&#39;]</text>
</g>
<!-- continueday1&#45;&gt;lunchday1 -->
<g id="edge6" class="edge"><title>continueday1&#45;&gt;lunchday1</title>
<path fill="none" stroke="black" d="M507.287,-78.6946C529.832,-86.7 555.846,-95.937 578.299,-103.91"/>
<polygon fill="black" stroke="black" points="577.415,-107.31 588.01,-107.358 579.757,-100.713 577.415,-107.31"/>
<text text-anchor="middle" x="547.874" y="-102.945" font-family="Times New Roman,serif" font-size="14.00">[&#39;next&#39;]</text>
</g>
</g>
</svg>
