<?xml version="1.0" encoding="UTF-8" standalone="no"?>
<!DOCTYPE svg PUBLIC "-//W3C//DTD SVG 1.1//EN"
 "http://www.w3.org/Graphics/SVG/1.1/DTD/svg11.dtd">
<!-- Generated by graphviz version 2.38.0 (20140413.2041)
 -->
<!-- Title: FSM Pages: 1 -->
<svg width="576pt" height="118pt"
 viewBox="0.00 0.00 576.00 117.63" xmlns="http://www.w3.org/2000/svg" xmlns:xlink="http://www.w3.org/1999/xlink">
<g id="graph0" class="graph" transform="scale(0.34557 0.34557) rotate(0) translate(4 336.388)">
<title>FSM</title>
<polygon fill="white" stroke="none" points="-4,4 -4,-336.388 1662.81,-336.388 1662.81,4 -4,4"/>
<!-- day3 -->
<g id="node1" class="node"><title>day3</title>
<ellipse fill="none" stroke="black" cx="73.1975" cy="-229.743" rx="28.6832" ry="28.6832"/>
<ellipse fill="none" stroke="black" cx="73.1975" cy="-229.743" rx="32.6952" ry="32.6952"/>
<text text-anchor="middle" x="73.1975" y="-226.043" font-family="Times New Roman,serif" font-size="14.00">day3</text>
</g>
<!-- flirt -->
<g id="node3" class="node"><title>flirt</title>
<ellipse fill="none" stroke="black" cx="246.391" cy="-281.743" rx="22.9987" ry="22.9987"/>
<text text-anchor="middle" x="246.391" y="-278.043" font-family="Times New Roman,serif" font-size="14.00">flirt</text>
</g>
<!-- day3&#45;&gt;flirt -->
<g id="edge2" class="edge"><title>day3&#45;&gt;flirt</title>
<path fill="none" stroke="black" d="M104.803,-239.04C135.824,-248.462 183.553,-262.96 214.629,-272.399"/>
<polygon fill="black" stroke="black" points="213.896,-275.834 224.481,-275.392 215.93,-269.137 213.896,-275.834"/>
<text text-anchor="middle" x="155.295" y="-267.543" font-family="Times New Roman,serif" font-size="14.00">[&#39;flirt&#39;]</text>
</g>
<!-- question -->
<g id="node4" class="node"><title>question</title>
<ellipse fill="none" stroke="black" cx="246.391" cy="-199.743" rx="41.6928" ry="41.6928"/>
<text text-anchor="middle" x="246.391" y="-196.043" font-family="Times New Roman,serif" font-size="14.00">question</text>
</g>
<!-- day3&#45;&gt;question -->
<g id="edge3" class="edge"><title>day3&#45;&gt;question</title>
<path fill="none" stroke="black" d="M105.597,-224.241C130.638,-219.853 166.191,-213.622 195.175,-208.543"/>
<polygon fill="black" stroke="black" points="195.88,-211.973 205.125,-206.8 194.671,-205.078 195.88,-211.973"/>
<text text-anchor="middle" x="155.295" y="-225.543" font-family="Times New Roman,serif" font-size="14.00">[&#39;question&#39;]</text>
</g>
<!-- qi -->
<g id="node2" class="node"><title>qi</title>
<ellipse fill="black" stroke="black" cx="1.8" cy="-229.743" rx="1.8" ry="1.8"/>
</g>
<!-- qi&#45;&gt;day3 -->
<g id="edge1" class="edge"><title>qi&#45;&gt;day3</title>
<path fill="none" stroke="black" d="M3.78102,-229.743C7.02443,-229.743 17.8893,-229.743 30.035,-229.743"/>
<polygon fill="black" stroke="black" points="30.3993,-233.243 40.3993,-229.743 30.3992,-226.243 30.3993,-233.243"/>
</g>
<!-- continueday3 -->
<g id="node5" class="node"><title>continueday3</title>
<ellipse fill="none" stroke="black" cx="422.132" cy="-245.743" rx="59.2899" ry="59.2899"/>
<text text-anchor="middle" x="422.132" y="-242.043" font-family="Times New Roman,serif" font-size="14.00">continueday3</text>
</g>
<!-- flirt&#45;&gt;continueday3 -->
<g id="edge4" class="edge"><title>flirt&#45;&gt;continueday3</title>
<path fill="none" stroke="black" d="M269.044,-277.257C290.293,-272.854 323.811,-265.909 353.979,-259.658"/>
<polygon fill="black" stroke="black" points="354.977,-263.026 364.059,-257.569 353.557,-256.171 354.977,-263.026"/>
<text text-anchor="middle" x="325.488" y="-273.543" font-family="Times New Roman,serif" font-size="14.00">[&#39;next&#39;]</text>
</g>
<!-- question&#45;&gt;continueday3 -->
<g id="edge5" class="edge"><title>question&#45;&gt;continueday3</title>
<path fill="none" stroke="black" d="M286.816,-210.181C306.965,-215.516 332.026,-222.151 355.025,-228.241"/>
<polygon fill="black" stroke="black" points="354.172,-231.635 364.735,-230.811 355.964,-224.869 354.172,-231.635"/>
<text text-anchor="middle" x="325.488" y="-229.543" font-family="Times New Roman,serif" font-size="14.00">[&#39;next&#39;]</text>
</g>
<!-- followpumpkin -->
<g id="node6" class="node"><title>followpumpkin</title>
<ellipse fill="none" stroke="black" cx="768.912" cy="-266.743" rx="65.7887" ry="65.7887"/>
<text text-anchor="middle" x="768.912" y="-263.043" font-family="Times New Roman,serif" font-size="14.00">followpumpkin</text>
</g>
<!-- continueday3&#45;&gt;followpumpkin -->
<g id="edge6" class="edge"><title>continueday3&#45;&gt;followpumpkin</title>
<path fill="none" stroke="black" d="M481.23,-249.282C539.403,-252.825 629.18,-258.293 692.749,-262.165"/>
<polygon fill="black" stroke="black" points="692.918,-265.682 703.112,-262.797 693.343,-258.695 692.918,-265.682"/>
<text text-anchor="middle" x="531.277" y="-258.543" font-family="Times New Roman,serif" font-size="14.00">[&#39;pumpkin&#39;]</text>
</g>
<!-- followlukas -->
<g id="node7" class="node"><title>followlukas</title>
<ellipse fill="none" stroke="black" cx="633.272" cy="-185.743" rx="51.9908" ry="51.9908"/>
<text text-anchor="middle" x="633.272" y="-182.043" font-family="Times New Roman,serif" font-size="14.00">followlukas</text>
</g>
<!-- continueday3&#45;&gt;followlukas -->
<g id="edge7" class="edge"><title>continueday3&#45;&gt;followlukas</title>
<path fill="none" stroke="black" d="M479.178,-229.664C508.312,-221.306 543.902,-211.096 573.433,-202.624"/>
<polygon fill="black" stroke="black" points="574.55,-205.945 583.197,-199.823 572.62,-199.216 574.55,-205.945"/>
<text text-anchor="middle" x="531.277" y="-227.543" font-family="Times New Roman,serif" font-size="14.00">[&#39;lukas&#39;]</text>
</g>
<!-- day4 -->
<g id="node8" class="node"><title>day4</title>
<ellipse fill="none" stroke="black" cx="1630.22" cy="-241.743" rx="28.6953" ry="28.6953"/>
<text text-anchor="middle" x="1630.22" y="-238.043" font-family="Times New Roman,serif" font-size="14.00">day4</text>
</g>
<!-- followpumpkin&#45;&gt;day4 -->
<g id="edge8" class="edge"><title>followpumpkin&#45;&gt;day4</title>
<path fill="none" stroke="black" d="M834.777,-266.743C889.185,-266.743 968.937,-266.743 1038.54,-266.743 1038.54,-266.743 1038.54,-266.743 1487.97,-266.743 1523.9,-266.743 1564.2,-258.802 1592.52,-251.871"/>
<polygon fill="black" stroke="black" points="1593.55,-255.222 1602.39,-249.38 1591.84,-248.435 1593.55,-255.222"/>
<text text-anchor="middle" x="1212.34" y="-270.543" font-family="Times New Roman,serif" font-size="14.00">[&#39;next&#39;]</text>
</g>
<!-- heatfood -->
<g id="node9" class="node"><title>heatfood</title>
<ellipse fill="none" stroke="black" cx="1119.94" cy="-159.743" rx="42.7926" ry="42.7926"/>
<text text-anchor="middle" x="1119.94" y="-156.043" font-family="Times New Roman,serif" font-size="14.00">heatfood</text>
</g>
<!-- followlukas&#45;&gt;heatfood -->
<g id="edge9" class="edge"><title>followlukas&#45;&gt;heatfood</title>
<path fill="none" stroke="black" d="M685.224,-183.01C777.99,-178.034 973.484,-167.546 1066.98,-162.53"/>
<polygon fill="black" stroke="black" points="1067.26,-166.021 1077.06,-161.99 1066.89,-159.031 1067.26,-166.021"/>
<text text-anchor="middle" x="927.3" y="-177.543" font-family="Times New Roman,serif" font-size="14.00">[&#39;food&#39;]</text>
</g>
<!-- askaboutnumbers -->
<g id="node10" class="node"><title>askaboutnumbers</title>
<ellipse fill="none" stroke="black" cx="927.3" cy="-74.7434" rx="74.9875" ry="74.9875"/>
<text text-anchor="middle" x="927.3" y="-71.0434" font-family="Times New Roman,serif" font-size="14.00">askaboutnumbers</text>
</g>
<!-- followlukas&#45;&gt;askaboutnumbers -->
<g id="edge10" class="edge"><title>followlukas&#45;&gt;askaboutnumbers</title>
<path fill="none" stroke="black" d="M681.291,-165.644C688.625,-162.606 696.135,-159.552 703.268,-156.743 750.732,-138.054 804.377,-118.289 847.159,-102.847"/>
<polygon fill="black" stroke="black" points="848.45,-106.102 856.672,-99.4202 846.077,-99.5167 848.45,-106.102"/>
<text text-anchor="middle" x="768.912" y="-160.543" font-family="Times New Roman,serif" font-size="14.00">[&#39;ask&#39;]</text>
</g>
<!-- skipride -->
<g id="node11" class="node"><title>skipride</title>
<ellipse fill="none" stroke="black" cx="1486.97" cy="-198.743" rx="39.7935" ry="39.7935"/>
<text text-anchor="middle" x="1486.97" y="-195.043" font-family="Times New Roman,serif" font-size="14.00">skipride</text>
</g>
<!-- heatfood&#45;&gt;skipride -->
<g id="edge12" class="edge"><title>heatfood&#45;&gt;skipride</title>
<path fill="none" stroke="black" d="M1162.06,-168.308C1190.07,-173.827 1228.04,-180.703 1261.84,-184.743 1321.81,-191.914 1391.29,-195.533 1436.8,-197.273"/>
<polygon fill="black" stroke="black" points="1436.86,-200.778 1446.98,-197.646 1437.11,-193.782 1436.86,-200.778"/>
<text text-anchor="middle" x="1317.08" y="-198.543" font-family="Times New Roman,serif" font-size="14.00">[&#39;skip&#39;]</text>
</g>
<!-- continueride -->
<g id="node12" class="node"><title>continueride</title>
<ellipse fill="none" stroke="black" cx="1317.08" cy="-120.743" rx="55.4913" ry="55.4913"/>
<text text-anchor="middle" x="1317.08" y="-117.043" font-family="Times New Roman,serif" font-size="14.00">continueride</text>
</g>
<!-- heatfood&#45;&gt;continueride -->
<g id="edge13" class="edge"><title>heatfood&#45;&gt;continueride</title>
<path fill="none" stroke="black" d="M1162.32,-151.472C1188.56,-146.229 1223.01,-139.343 1252.66,-133.419"/>
<polygon fill="black" stroke="black" points="1253.39,-136.842 1262.51,-131.45 1252.02,-129.978 1253.39,-136.842"/>
<text text-anchor="middle" x="1212.34" y="-151.543" font-family="Times New Roman,serif" font-size="14.00">[&#39;continue&#39;]</text>
</g>
<!-- askaboutnumbers&#45;&gt;heatfood -->
<g id="edge11" class="edge"><title>askaboutnumbers&#45;&gt;heatfood</title>
<path fill="none" stroke="black" d="M995.78,-104.831C1020.73,-115.954 1048.46,-128.321 1071.29,-138.498"/>
<polygon fill="black" stroke="black" points="1069.86,-141.695 1080.42,-142.571 1072.72,-135.302 1069.86,-141.695"/>
<text text-anchor="middle" x="1039.54" y="-136.543" font-family="Times New Roman,serif" font-size="14.00">[&#39;next&#39;]</text>
</g>
<!-- skipride&#45;&gt;day4 -->
<g id="edge15" class="edge"><title>skipride&#45;&gt;day4</title>
<path fill="none" stroke="black" d="M1525.08,-210.041C1546.01,-216.414 1572.06,-224.343 1592.86,-230.677"/>
<polygon fill="black" stroke="black" points="1592.03,-234.08 1602.61,-233.644 1594.07,-227.384 1592.03,-234.08"/>
<text text-anchor="middle" x="1564.12" y="-232.543" font-family="Times New Roman,serif" font-size="14.00">[&#39;next&#39;]</text>
</g>
<!-- continueride&#45;&gt;skipride -->
<g id="edge14" class="edge"><title>continueride&#45;&gt;skipride</title>
<path fill="none" stroke="black" d="M1367.55,-143.724C1391.01,-154.625 1418.82,-167.547 1441.6,-178.128"/>
<polygon fill="black" stroke="black" points="1440.16,-181.317 1450.7,-182.356 1443.11,-174.969 1440.16,-181.317"/>
<text text-anchor="middle" x="1409.83" y="-175.543" font-family="Times New Roman,serif" font-size="14.00">[&#39;next&#39;]</text>
</g>
</g>
</svg>
