<?xml version="1.0" encoding="UTF-8" standalone="no"?>
<!DOCTYPE svg PUBLIC "-//W3C//DTD SVG 1.1//EN"
 "http://www.w3.org/Graphics/SVG/1.1/DTD/svg11.dtd">
<!-- Generated by graphviz version 2.38.0 (20140413.2041)
 -->
<!-- Title: FSM Pages: 1 -->
<svg width="576pt" height="123pt"
 viewBox="0.00 0.00 576.00 123.16" xmlns="http://www.w3.org/2000/svg" xmlns:xlink="http://www.w3.org/1999/xlink">
<g id="graph0" class="graph" transform="scale(0.723648 0.723648) rotate(0) translate(4 166.191)">
<title>FSM</title>
<polygon fill="white" stroke="none" points="-4,4 -4,-166.191 791.967,-166.191 791.967,4 -4,4"/>
<!-- day4 -->
<g id="node1" class="node"><title>day4</title>
<ellipse fill="none" stroke="black" cx="73.1975" cy="-48.0957" rx="28.6832" ry="28.6832"/>
<ellipse fill="none" stroke="black" cx="73.1975" cy="-48.0957" rx="32.6952" ry="32.6952"/>
<text text-anchor="middle" x="73.1975" y="-44.3957" font-family="Times New Roman,serif" font-size="14.00">day4</text>
</g>
<!-- menuday4 -->
<g id="node3" class="node"><title>menuday4</title>
<ellipse fill="none" stroke="black" cx="228.891" cy="-48.0957" rx="48.1917" ry="48.1917"/>
<text text-anchor="middle" x="228.891" y="-44.3957" font-family="Times New Roman,serif" font-size="14.00">menuday4</text>
</g>
<!-- day4&#45;&gt;menuday4 -->
<g id="edge2" class="edge"><title>day4&#45;&gt;menuday4</title>
<path fill="none" stroke="black" d="M106.043,-48.0957C124.639,-48.0957 148.665,-48.0957 170.46,-48.0957"/>
<polygon fill="black" stroke="black" points="170.617,-51.5958 180.617,-48.0957 170.617,-44.5958 170.617,-51.5958"/>
<text text-anchor="middle" x="143.295" y="-51.8957" font-family="Times New Roman,serif" font-size="14.00">[&#39;next&#39;]</text>
</g>
<!-- qi -->
<g id="node2" class="node"><title>qi</title>
<ellipse fill="black" stroke="black" cx="1.8" cy="-48.0957" rx="1.8" ry="1.8"/>
</g>
<!-- qi&#45;&gt;day4 -->
<g id="edge1" class="edge"><title>qi&#45;&gt;day4</title>
<path fill="none" stroke="black" d="M3.78102,-48.0957C7.02443,-48.0957 17.8893,-48.0957 30.035,-48.0957"/>
<polygon fill="black" stroke="black" points="30.3993,-51.5958 40.3993,-48.0957 30.3992,-44.5958 30.3993,-51.5958"/>
</g>
<!-- menuday4&#45;&gt;menuday4 -->
<g id="edge3" class="edge"><title>menuday4&#45;&gt;menuday4</title>
<path fill="none" stroke="black" d="M221.391,-95.627C222.066,-106.349 224.566,-114.191 228.891,-114.191 231.661,-114.191 233.682,-110.973 234.955,-105.841"/>
<polygon fill="black" stroke="black" points="238.465,-106.017 236.39,-95.627 231.533,-105.043 238.465,-106.017"/>
<text text-anchor="middle" x="228.891" y="-117.991" font-family="Times New Roman,serif" font-size="14.00">[&#39;girl&#39;]</text>
</g>
<!-- menuday4&#45;&gt;menuday4 -->
<g id="edge4" class="edge"><title>menuday4&#45;&gt;menuday4</title>
<path fill="none" stroke="black" d="M213.756,-93.9419C212.314,-114.453 217.359,-132.191 228.891,-132.191 238.44,-132.191 243.541,-120.026 244.194,-104.196"/>
<polygon fill="black" stroke="black" points="247.689,-103.883 244.025,-93.9419 240.69,-103.998 247.689,-103.883"/>
<text text-anchor="middle" x="228.891" y="-135.991" font-family="Times New Roman,serif" font-size="14.00">[&#39;staff&#39;]</text>
</g>
<!-- art -->
<g id="node4" class="node"><title>art</title>
<ellipse fill="none" stroke="black" cx="367.135" cy="-48.0957" rx="20.2975" ry="20.2975"/>
<text text-anchor="middle" x="367.135" y="-44.3957" font-family="Times New Roman,serif" font-size="14.00">art</text>
</g>
<!-- menuday4&#45;&gt;art -->
<g id="edge5" class="edge"><title>menuday4&#45;&gt;art</title>
<path fill="none" stroke="black" d="M277.16,-48.0957C296.89,-48.0957 319.204,-48.0957 336.549,-48.0957"/>
<polygon fill="black" stroke="black" points="336.64,-51.5958 346.64,-48.0957 336.64,-44.5958 336.64,-51.5958"/>
<text text-anchor="middle" x="311.986" y="-51.8957" font-family="Times New Roman,serif" font-size="14.00">[&#39;like&#39;]</text>
</g>
<!-- artyes -->
<g id="node5" class="node"><title>artyes</title>
<ellipse fill="none" stroke="black" cx="489.78" cy="-97.0957" rx="32.4942" ry="32.4942"/>
<text text-anchor="middle" x="489.78" y="-93.3957" font-family="Times New Roman,serif" font-size="14.00">artyes</text>
</g>
<!-- art&#45;&gt;artyes -->
<g id="edge6" class="edge"><title>art&#45;&gt;artyes</title>
<path fill="none" stroke="black" d="M386.196,-55.4315C402.956,-62.2383 428.461,-72.5971 449.846,-81.2827"/>
<polygon fill="black" stroke="black" points="448.753,-84.6166 459.335,-85.1369 451.388,-78.1311 448.753,-84.6166"/>
<text text-anchor="middle" x="422.283" y="-79.8957" font-family="Times New Roman,serif" font-size="14.00">[&#39;yes&#39;]</text>
</g>
<!-- artno -->
<g id="node6" class="node"><title>artno</title>
<ellipse fill="none" stroke="black" cx="626.524" cy="-56.0957" rx="29.4969" ry="29.4969"/>
<text text-anchor="middle" x="626.524" y="-52.3957" font-family="Times New Roman,serif" font-size="14.00">artno</text>
</g>
<!-- art&#45;&gt;artno -->
<g id="edge7" class="edge"><title>art&#45;&gt;artno</title>
<path fill="none" stroke="black" d="M387.238,-46.1601C405.272,-44.4362 433.083,-42.0444 457.283,-41.0957 486.147,-39.9643 493.466,-39.0138 522.277,-41.0957 544.023,-42.6671 568.145,-46.0769 587.601,-49.2489"/>
<polygon fill="black" stroke="black" points="587.157,-52.7233 597.598,-50.9241 588.314,-45.8196 587.157,-52.7233"/>
<text text-anchor="middle" x="489.78" y="-44.8957" font-family="Times New Roman,serif" font-size="14.00">[&#39;no&#39;]</text>
</g>
<!-- artyes&#45;&gt;artno -->
<g id="edge8" class="edge"><title>artyes&#45;&gt;artno</title>
<path fill="none" stroke="black" d="M521.019,-87.8945C540.98,-81.8208 567.266,-73.8226 588.481,-67.3673"/>
<polygon fill="black" stroke="black" points="589.586,-70.6896 598.134,-64.4301 587.548,-63.9928 589.586,-70.6896"/>
<text text-anchor="middle" x="559.777" y="-84.8957" font-family="Times New Roman,serif" font-size="14.00">[&#39;next&#39;]</text>
</g>
<!-- day5 -->
<g id="node7" class="node"><title>day5</title>
<ellipse fill="none" stroke="black" cx="759.369" cy="-56.0957" rx="28.6953" ry="28.6953"/>
<text text-anchor="middle" x="759.369" y="-52.3957" font-family="Times New Roman,serif" font-size="14.00">day5</text>
</g>
<!-- artno&#45;&gt;day5 -->
<g id="edge9" class="edge"><title>artno&#45;&gt;day5</title>
<path fill="none" stroke="black" d="M655.916,-56.0957C674.819,-56.0957 699.874,-56.0957 720.474,-56.0957"/>
<polygon fill="black" stroke="black" points="720.483,-59.5958 730.483,-56.0957 720.483,-52.5958 720.483,-59.5958"/>
<text text-anchor="middle" x="693.272" y="-59.8957" font-family="Times New Roman,serif" font-size="14.00">[&#39;next&#39;]</text>
</g>
</g>
</svg>
