<?xml version="1.0" encoding="UTF-8" standalone="no"?>
<!DOCTYPE svg PUBLIC "-//W3C//DTD SVG 1.1//EN"
 "http://www.w3.org/Graphics/SVG/1.1/DTD/svg11.dtd">
<!-- Generated by graphviz version 2.38.0 (20140413.2041)
 -->
<!-- Title: FSM Pages: 1 -->
<svg width="576pt" height="177pt"
 viewBox="0.00 0.00 576.00 176.66" xmlns="http://www.w3.org/2000/svg" xmlns:xlink="http://www.w3.org/1999/xlink">
<g id="graph0" class="graph" transform="scale(0.268833 0.268833) rotate(0) translate(4 653.14)">
<title>FSM</title>
<polygon fill="white" stroke="none" points="-4,4 -4,-653.14 2138.59,-653.14 2138.59,4 -4,4"/>
<!-- day5 -->
<g id="node1" class="node"><title>day5</title>
<ellipse fill="none" stroke="black" cx="73.1975" cy="-401.794" rx="28.6832" ry="28.6832"/>
<ellipse fill="none" stroke="black" cx="73.1975" cy="-401.794" rx="32.6952" ry="32.6952"/>
<text text-anchor="middle" x="73.1975" y="-398.094" font-family="Times New Roman,serif" font-size="14.00">day5</text>
</g>
<!-- minigame_hide_seek -->
<g id="node3" class="node"><title>minigame_hide_seek</title>
<ellipse fill="none" stroke="black" cx="266.587" cy="-401.794" rx="85.5853" ry="85.5853"/>
<text text-anchor="middle" x="266.587" y="-398.094" font-family="Times New Roman,serif" font-size="14.00">minigame_hide_seek</text>
</g>
<!-- day5&#45;&gt;minigame_hide_seek -->
<g id="edge2" class="edge"><title>day5&#45;&gt;minigame_hide_seek</title>
<path fill="none" stroke="black" d="M105.802,-401.794C123.731,-401.794 147.217,-401.794 170.642,-401.794"/>
<polygon fill="black" stroke="black" points="170.661,-405.294 180.661,-401.794 170.661,-398.294 170.661,-405.294"/>
<text text-anchor="middle" x="143.295" y="-405.594" font-family="Times New Roman,serif" font-size="14.00">[&#39;next&#39;]</text>
</g>
<!-- qi -->
<g id="node2" class="node"><title>qi</title>
<ellipse fill="black" stroke="black" cx="1.8" cy="-401.794" rx="1.8" ry="1.8"/>
</g>
<!-- qi&#45;&gt;day5 -->
<g id="edge1" class="edge"><title>qi&#45;&gt;day5</title>
<path fill="none" stroke="black" d="M3.78102,-401.794C7.02443,-401.794 17.8893,-401.794 30.035,-401.794"/>
<polygon fill="black" stroke="black" points="30.3993,-405.294 40.3993,-401.794 30.3992,-398.294 30.3993,-405.294"/>
</g>
<!-- hsdiag1 -->
<g id="node4" class="node"><title>hsdiag1</title>
<ellipse fill="none" stroke="black" cx="522.726" cy="-610.794" rx="38.1938" ry="38.1938"/>
<text text-anchor="middle" x="522.726" y="-607.094" font-family="Times New Roman,serif" font-size="14.00">hsdiag1</text>
</g>
<!-- minigame_hide_seek&#45;&gt;hsdiag1 -->
<g id="edge3" class="edge"><title>minigame_hide_seek&#45;&gt;hsdiag1</title>
<path fill="none" stroke="black" d="M295.721,-482.632C312.13,-518.284 336.42,-557.517 370.38,-581.794 400.427,-603.273 442.083,-610.019 474.088,-611.676"/>
<polygon fill="black" stroke="black" points="473.99,-615.175 484.113,-612.048 474.249,-608.18 473.99,-615.175"/>
<text text-anchor="middle" x="418.38" y="-615.594" font-family="Times New Roman,serif" font-size="14.00">[&#39;first_obj&#39;]</text>
</g>
<!-- hsdiag2 -->
<g id="node5" class="node"><title>hsdiag2</title>
<ellipse fill="none" stroke="black" cx="522.726" cy="-515.794" rx="38.1938" ry="38.1938"/>
<text text-anchor="middle" x="522.726" y="-512.094" font-family="Times New Roman,serif" font-size="14.00">hsdiag2</text>
</g>
<!-- minigame_hide_seek&#45;&gt;hsdiag2 -->
<g id="edge5" class="edge"><title>minigame_hide_seek&#45;&gt;hsdiag2</title>
<path fill="none" stroke="black" d="M325.79,-464.269C339.377,-475.729 354.541,-486.391 370.38,-493.794 402.905,-508.994 443.293,-514.275 474.165,-515.874"/>
<polygon fill="black" stroke="black" points="474.111,-519.375 484.245,-516.284 474.396,-512.381 474.111,-519.375"/>
<text text-anchor="middle" x="418.38" y="-519.594" font-family="Times New Roman,serif" font-size="14.00">[&#39;second_obj&#39;]</text>
</g>
<!-- hsdiag3 -->
<g id="node6" class="node"><title>hsdiag3</title>
<ellipse fill="none" stroke="black" cx="522.726" cy="-420.794" rx="38.1938" ry="38.1938"/>
<text text-anchor="middle" x="522.726" y="-417.094" font-family="Times New Roman,serif" font-size="14.00">hsdiag3</text>
</g>
<!-- minigame_hide_seek&#45;&gt;hsdiag3 -->
<g id="edge7" class="edge"><title>minigame_hide_seek&#45;&gt;hsdiag3</title>
<path fill="none" stroke="black" d="M351.341,-415.783C357.771,-416.565 364.172,-417.251 370.38,-417.794 405.041,-420.821 444.329,-421.519 474.188,-421.488"/>
<polygon fill="black" stroke="black" points="474.347,-424.988 484.333,-421.449 474.32,-417.988 474.347,-424.988"/>
<text text-anchor="middle" x="418.38" y="-425.594" font-family="Times New Roman,serif" font-size="14.00">[&#39;third_obj&#39;]</text>
</g>
<!-- hsdiag4 -->
<g id="node7" class="node"><title>hsdiag4</title>
<ellipse fill="none" stroke="black" cx="522.726" cy="-325.794" rx="38.1938" ry="38.1938"/>
<text text-anchor="middle" x="522.726" y="-322.094" font-family="Times New Roman,serif" font-size="14.00">hsdiag4</text>
</g>
<!-- minigame_hide_seek&#45;&gt;hsdiag4 -->
<g id="edge9" class="edge"><title>minigame_hide_seek&#45;&gt;hsdiag4</title>
<path fill="none" stroke="black" d="M349.047,-377.433C390.936,-364.906 440.449,-350.1 475.692,-339.56"/>
<polygon fill="black" stroke="black" points="477.112,-342.789 485.69,-336.57 475.106,-336.082 477.112,-342.789"/>
<text text-anchor="middle" x="418.38" y="-374.594" font-family="Times New Roman,serif" font-size="14.00">[&#39;fourth_obj&#39;]</text>
</g>
<!-- hsdiag5 -->
<g id="node8" class="node"><title>hsdiag5</title>
<ellipse fill="none" stroke="black" cx="522.726" cy="-230.794" rx="38.1938" ry="38.1938"/>
<text text-anchor="middle" x="522.726" y="-227.094" font-family="Times New Roman,serif" font-size="14.00">hsdiag5</text>
</g>
<!-- minigame_hide_seek&#45;&gt;hsdiag5 -->
<g id="edge11" class="edge"><title>minigame_hide_seek&#45;&gt;hsdiag5</title>
<path fill="none" stroke="black" d="M323.655,-337.457C337.969,-323.268 353.977,-309.112 370.38,-297.794 372.803,-296.121 434.211,-269.105 478.05,-249.896"/>
<polygon fill="black" stroke="black" points="479.63,-253.025 487.386,-245.807 476.822,-246.613 479.63,-253.025"/>
<text text-anchor="middle" x="418.38" y="-301.594" font-family="Times New Roman,serif" font-size="14.00">[&#39;fifth_obj&#39;]</text>
</g>
<!-- hs_end -->
<g id="node9" class="node"><title>hs_end</title>
<ellipse fill="none" stroke="black" cx="522.726" cy="-137.794" rx="37.0935" ry="37.0935"/>
<text text-anchor="middle" x="522.726" y="-134.094" font-family="Times New Roman,serif" font-size="14.00">hs_end</text>
</g>
<!-- minigame_hide_seek&#45;&gt;hs_end -->
<g id="edge13" class="edge"><title>minigame_hide_seek&#45;&gt;hs_end</title>
<path fill="none" stroke="black" d="M294.308,-320.406C310.896,-280.364 335.753,-233.926 370.38,-201.794 400.228,-174.096 443.841,-157.388 476.59,-148.026"/>
<polygon fill="black" stroke="black" points="477.654,-151.364 486.378,-145.353 475.809,-144.612 477.654,-151.364"/>
<text text-anchor="middle" x="418.38" y="-205.594" font-family="Times New Roman,serif" font-size="14.00">[&#39;end_minigame&#39;]</text>
</g>
<!-- hsdiag1&#45;&gt;minigame_hide_seek -->
<g id="edge4" class="edge"><title>hsdiag1&#45;&gt;minigame_hide_seek</title>
<path fill="none" stroke="black" d="M495.336,-583.831C486.691,-576.169 476.654,-568.394 466.38,-562.794 427.357,-541.52 407.104,-559.827 370.38,-534.794 350.441,-521.202 332.658,-502.515 317.719,-483.442"/>
<polygon fill="black" stroke="black" points="320.333,-481.098 311.493,-475.258 314.762,-485.336 320.333,-481.098"/>
<text text-anchor="middle" x="418.38" y="-566.594" font-family="Times New Roman,serif" font-size="14.00">[&#39;next&#39;]</text>
</g>
<!-- hsdiag2&#45;&gt;minigame_hide_seek -->
<g id="edge6" class="edge"><title>hsdiag2&#45;&gt;minigame_hide_seek</title>
<path fill="none" stroke="black" d="M492.644,-491.743C484.469,-485.692 475.353,-479.568 466.38,-474.794 426.42,-453.532 412.876,-456.378 370.38,-440.794 365.858,-439.135 361.228,-437.425 356.557,-435.689"/>
<polygon fill="black" stroke="black" points="357.522,-432.313 346.93,-432.098 355.076,-438.872 357.522,-432.313"/>
<text text-anchor="middle" x="418.38" y="-478.594" font-family="Times New Roman,serif" font-size="14.00">[&#39;next&#39;]</text>
</g>
<!-- hsdiag3&#45;&gt;minigame_hide_seek -->
<g id="edge8" class="edge"><title>hsdiag3&#45;&gt;minigame_hide_seek</title>
<path fill="none" stroke="black" d="M487.789,-404.984C480.848,-402.416 473.489,-400.155 466.38,-398.794 432.892,-392.382 395.649,-391.365 362.536,-392.534"/>
<polygon fill="black" stroke="black" points="362.243,-389.043 352.4,-392.964 362.539,-396.037 362.243,-389.043"/>
<text text-anchor="middle" x="418.38" y="-402.594" font-family="Times New Roman,serif" font-size="14.00">[&#39;next&#39;]</text>
</g>
<!-- hsdiag4&#45;&gt;minigame_hide_seek -->
<g id="edge10" class="edge"><title>hsdiag4&#45;&gt;minigame_hide_seek</title>
<path fill="none" stroke="black" d="M484.624,-319.449C453.34,-315.578 407.813,-313.458 370.38,-325.794 359.97,-329.224 349.752,-334.159 340.038,-339.89"/>
<polygon fill="black" stroke="black" points="337.903,-337.097 331.268,-345.357 341.606,-343.037 337.903,-337.097"/>
<text text-anchor="middle" x="418.38" y="-329.594" font-family="Times New Roman,serif" font-size="14.00">[&#39;next&#39;]</text>
</g>
<!-- hsdiag5&#45;&gt;minigame_hide_seek -->
<g id="edge12" class="edge"><title>hsdiag5&#45;&gt;minigame_hide_seek</title>
<path fill="none" stroke="black" d="M484.832,-223.105C452.428,-218.378 405.161,-216.571 370.38,-236.794 340.897,-253.935 318.674,-283.251 302.573,-312.461"/>
<polygon fill="black" stroke="black" points="299.367,-311.035 297.771,-321.509 305.551,-314.316 299.367,-311.035"/>
<text text-anchor="middle" x="418.38" y="-240.594" font-family="Times New Roman,serif" font-size="14.00">[&#39;next&#39;]</text>
</g>
<!-- continue_day5 -->
<g id="node10" class="node"><title>continue_day5</title>
<ellipse fill="none" stroke="black" cx="699.767" cy="-137.794" rx="63.8893" ry="63.8893"/>
<text text-anchor="middle" x="699.767" y="-134.094" font-family="Times New Roman,serif" font-size="14.00">continue_day5</text>
</g>
<!-- hs_end&#45;&gt;continue_day5 -->
<g id="edge14" class="edge"><title>hs_end&#45;&gt;continue_day5</title>
<path fill="none" stroke="black" d="M559.995,-137.794C579.012,-137.794 603.015,-137.794 625.688,-137.794"/>
<polygon fill="black" stroke="black" points="625.989,-141.294 635.989,-137.794 625.989,-134.294 625.989,-141.294"/>
<text text-anchor="middle" x="598.573" y="-141.594" font-family="Times New Roman,serif" font-size="14.00">[&#39;next&#39;]</text>
</g>
<!-- pumpkinshoot -->
<g id="node11" class="node"><title>pumpkinshoot</title>
<ellipse fill="none" stroke="black" cx="925.506" cy="-217.794" rx="63.0888" ry="63.0888"/>
<text text-anchor="middle" x="925.506" y="-214.094" font-family="Times New Roman,serif" font-size="14.00">pumpkinshoot</text>
</g>
<!-- continue_day5&#45;&gt;pumpkinshoot -->
<g id="edge15" class="edge"><title>continue_day5&#45;&gt;pumpkinshoot</title>
<path fill="none" stroke="black" d="M760.138,-159.022C789.693,-169.59 825.57,-182.418 856.256,-193.39"/>
<polygon fill="black" stroke="black" points="855.427,-196.811 866.022,-196.882 857.784,-190.219 855.427,-196.811"/>
<text text-anchor="middle" x="812.962" y="-191.594" font-family="Times New Roman,serif" font-size="14.00">[&#39;continue&#39;]</text>
</g>
<!-- skippumpkinshoot -->
<g id="node12" class="node"><title>skippumpkinshoot</title>
<ellipse fill="none" stroke="black" cx="1141.54" cy="-153.794" rx="77.9862" ry="77.9862"/>
<text text-anchor="middle" x="1141.54" y="-150.094" font-family="Times New Roman,serif" font-size="14.00">skippumpkinshoot</text>
</g>
<!-- continue_day5&#45;&gt;skippumpkinshoot -->
<g id="edge16" class="edge"><title>continue_day5&#45;&gt;skippumpkinshoot</title>
<path fill="none" stroke="black" d="M763.452,-132.69C821.811,-128.786 911.18,-124.973 988.55,-130.794 1010.03,-132.41 1033.08,-135.293 1054.56,-138.484"/>
<polygon fill="black" stroke="black" points="1054.23,-141.974 1064.64,-140.02 1055.29,-135.053 1054.23,-141.974"/>
<text text-anchor="middle" x="925.506" y="-134.594" font-family="Times New Roman,serif" font-size="14.00">[&#39;skip&#39;]</text>
</g>
<!-- pumpkinshoot&#45;&gt;skippumpkinshoot -->
<g id="edge17" class="edge"><title>pumpkinshoot&#45;&gt;skippumpkinshoot</title>
<path fill="none" stroke="black" d="M986.127,-199.966C1007.98,-193.432 1033.14,-185.91 1056.71,-178.86"/>
<polygon fill="black" stroke="black" points="1057.78,-182.194 1066.36,-175.976 1055.77,-175.488 1057.78,-182.194"/>
<text text-anchor="middle" x="1026.05" y="-197.594" font-family="Times New Roman,serif" font-size="14.00">[&#39;next&#39;]</text>
</g>
<!-- day6_nolabel -->
<g id="node13" class="node"><title>day6_nolabel</title>
<ellipse fill="none" stroke="black" cx="1353.68" cy="-153.794" rx="59.2899" ry="59.2899"/>
<text text-anchor="middle" x="1353.68" y="-150.094" font-family="Times New Roman,serif" font-size="14.00">day6_nolabel</text>
</g>
<!-- skippumpkinshoot&#45;&gt;day6_nolabel -->
<g id="edge18" class="edge"><title>skippumpkinshoot&#45;&gt;day6_nolabel</title>
<path fill="none" stroke="black" d="M1219.6,-153.794C1240.74,-153.794 1263.52,-153.794 1284.15,-153.794"/>
<polygon fill="black" stroke="black" points="1284.4,-157.294 1294.4,-153.794 1284.4,-150.294 1284.4,-157.294"/>
<text text-anchor="middle" x="1257.04" y="-157.594" font-family="Times New Roman,serif" font-size="14.00">[&#39;next&#39;]</text>
</g>
<!-- day6sex -->
<g id="node14" class="node"><title>day6sex</title>
<ellipse fill="none" stroke="black" cx="1528.12" cy="-153.794" rx="40.0939" ry="40.0939"/>
<text text-anchor="middle" x="1528.12" y="-150.094" font-family="Times New Roman,serif" font-size="14.00">day6sex</text>
</g>
<!-- day6_nolabel&#45;&gt;day6sex -->
<g id="edge19" class="edge"><title>day6_nolabel&#45;&gt;day6sex</title>
<path fill="none" stroke="black" d="M1413.06,-153.794C1434.03,-153.794 1457.46,-153.794 1477.6,-153.794"/>
<polygon fill="black" stroke="black" points="1477.8,-157.294 1487.8,-153.794 1477.8,-150.294 1477.8,-157.294"/>
<text text-anchor="middle" x="1450.33" y="-157.594" font-family="Times New Roman,serif" font-size="14.00">[&#39;next&#39;]</text>
</g>
<!-- skiporalday6 -->
<g id="node15" class="node"><title>skiporalday6</title>
<ellipse fill="none" stroke="black" cx="1945.2" cy="-146.794" rx="57.3905" ry="57.3905"/>
<text text-anchor="middle" x="1945.2" y="-143.094" font-family="Times New Roman,serif" font-size="14.00">skiporalday6</text>
</g>
<!-- day6sex&#45;&gt;skiporalday6 -->
<g id="edge20" class="edge"><title>day6sex&#45;&gt;skiporalday6</title>
<path fill="none" stroke="black" d="M1568.63,-154.779C1623.48,-155.955 1725.81,-157.45 1813.01,-154.794 1834.18,-154.149 1857.24,-152.92 1878.04,-151.615"/>
<polygon fill="black" stroke="black" points="1878.3,-155.106 1888.05,-150.971 1877.85,-148.121 1878.3,-155.106"/>
<text text-anchor="middle" x="1740.21" y="-160.594" font-family="Times New Roman,serif" font-size="14.00">[&#39;skip&#39;]</text>
</g>
<!-- continueoralday6 -->
<g id="node16" class="node"><title>continueoralday6</title>
<ellipse fill="none" stroke="black" cx="1740.21" cy="-72.7935" rx="72.5877" ry="72.5877"/>
<text text-anchor="middle" x="1740.21" y="-69.0935" font-family="Times New Roman,serif" font-size="14.00">continueoralday6</text>
</g>
<!-- day6sex&#45;&gt;continueoralday6 -->
<g id="edge21" class="edge"><title>day6sex&#45;&gt;continueoralday6</title>
<path fill="none" stroke="black" d="M1566.2,-139.499C1592.79,-129.247 1629.56,-115.07 1662.37,-102.421"/>
<polygon fill="black" stroke="black" points="1663.88,-105.588 1671.95,-98.7253 1661.36,-99.057 1663.88,-105.588"/>
<text text-anchor="middle" x="1617.92" y="-134.594" font-family="Times New Roman,serif" font-size="14.00">[&#39;continue&#39;]</text>
</g>
<!-- day7 -->
<g id="node17" class="node"><title>day7</title>
<ellipse fill="none" stroke="black" cx="2105.99" cy="-146.794" rx="28.6953" ry="28.6953"/>
<text text-anchor="middle" x="2105.99" y="-143.094" font-family="Times New Roman,serif" font-size="14.00">day7</text>
</g>
<!-- skiporalday6&#45;&gt;day7 -->
<g id="edge23" class="edge"><title>skiporalday6&#45;&gt;day7</title>
<path fill="none" stroke="black" d="M2002.63,-146.794C2023.99,-146.794 2047.78,-146.794 2067.04,-146.794"/>
<polygon fill="black" stroke="black" points="2067.24,-150.294 2077.24,-146.794 2067.24,-143.294 2067.24,-150.294"/>
<text text-anchor="middle" x="2039.9" y="-150.594" font-family="Times New Roman,serif" font-size="14.00">[&#39;next&#39;]</text>
</g>
<!-- continueoralday6&#45;&gt;skiporalday6 -->
<g id="edge22" class="edge"><title>continueoralday6&#45;&gt;skiporalday6</title>
<path fill="none" stroke="black" d="M1808.8,-97.4345C1832.32,-106.006 1858.57,-115.578 1881.66,-123.994"/>
<polygon fill="black" stroke="black" points="1880.75,-127.387 1891.34,-127.524 1883.15,-120.81 1880.75,-127.387"/>
<text text-anchor="middle" x="1850.51" y="-122.594" font-family="Times New Roman,serif" font-size="14.00">[&#39;next&#39;]</text>
</g>
</g>
</svg>
