<?xml version="1.0" encoding="UTF-8" standalone="no"?>
<!DOCTYPE svg PUBLIC "-//W3C//DTD SVG 1.1//EN"
 "http://www.w3.org/Graphics/SVG/1.1/DTD/svg11.dtd">
<!-- Generated by graphviz version 2.38.0 (20140413.2041)
 -->
<!-- Title: FSM Pages: 1 -->
<svg width="576pt" height="111pt"
 viewBox="0.00 0.00 576.00 111.07" xmlns="http://www.w3.org/2000/svg" xmlns:xlink="http://www.w3.org/1999/xlink">
<g id="graph0" class="graph" transform="scale(0.227732 0.227732) rotate(0) translate(4 483.739)">
<title>FSM</title>
<polygon fill="white" stroke="none" points="-4,4 -4,-483.739 2525.29,-483.739 2525.29,4 -4,4"/>
<!-- day7 -->
<g id="node1" class="node"><title>day7</title>
<ellipse fill="none" stroke="black" cx="73.1975" cy="-224.945" rx="28.6832" ry="28.6832"/>
<ellipse fill="none" stroke="black" cx="73.1975" cy="-224.945" rx="32.6952" ry="32.6952"/>
<text text-anchor="middle" x="73.1975" y="-221.245" font-family="Times New Roman,serif" font-size="14.00">day7</text>
</g>
<!-- day7yes -->
<g id="node3" class="node"><title>day7yes</title>
<ellipse fill="none" stroke="black" cx="216.091" cy="-287.945" rx="40.0939" ry="40.0939"/>
<text text-anchor="middle" x="216.091" y="-284.245" font-family="Times New Roman,serif" font-size="14.00">day7yes</text>
</g>
<!-- day7&#45;&gt;day7yes -->
<g id="edge2" class="edge"><title>day7&#45;&gt;day7yes</title>
<path fill="none" stroke="black" d="M103.391,-237.999C122.489,-246.538 147.832,-257.87 169.55,-267.582"/>
<polygon fill="black" stroke="black" points="168.364,-270.885 178.922,-271.772 171.222,-264.495 168.364,-270.885"/>
<text text-anchor="middle" x="140.795" y="-266.745" font-family="Times New Roman,serif" font-size="14.00">[&#39;yes&#39;]</text>
</g>
<!-- day7no -->
<g id="node4" class="node"><title>day7no</title>
<ellipse fill="none" stroke="black" cx="216.091" cy="-191.945" rx="37.8943" ry="37.8943"/>
<text text-anchor="middle" x="216.091" y="-188.245" font-family="Times New Roman,serif" font-size="14.00">day7no</text>
</g>
<!-- day7&#45;&gt;day7no -->
<g id="edge3" class="edge"><title>day7&#45;&gt;day7no</title>
<path fill="none" stroke="black" d="M105.117,-217.703C123.913,-213.301 148.259,-207.599 169.264,-202.679"/>
<polygon fill="black" stroke="black" points="170.331,-206.024 179.269,-200.336 168.734,-199.208 170.331,-206.024"/>
<text text-anchor="middle" x="140.795" y="-216.745" font-family="Times New Roman,serif" font-size="14.00">[&#39;no&#39;]</text>
</g>
<!-- qi -->
<g id="node2" class="node"><title>qi</title>
<ellipse fill="black" stroke="black" cx="1.8" cy="-224.945" rx="1.8" ry="1.8"/>
</g>
<!-- qi&#45;&gt;day7 -->
<g id="edge1" class="edge"><title>qi&#45;&gt;day7</title>
<path fill="none" stroke="black" d="M3.78102,-224.945C7.02443,-224.945 17.8893,-224.945 30.035,-224.945"/>
<polygon fill="black" stroke="black" points="30.3993,-228.445 40.3993,-224.945 30.3992,-221.445 30.3993,-228.445"/>
</g>
<!-- overhear -->
<g id="node5" class="node"><title>overhear</title>
<ellipse fill="none" stroke="black" cx="373.634" cy="-246.945" rx="42.4939" ry="42.4939"/>
<text text-anchor="middle" x="373.634" y="-243.245" font-family="Times New Roman,serif" font-size="14.00">overhear</text>
</g>
<!-- day7yes&#45;&gt;overhear -->
<g id="edge5" class="edge"><title>day7yes&#45;&gt;overhear</title>
<path fill="none" stroke="black" d="M255.141,-277.915C275.498,-272.55 300.817,-265.876 322.733,-260.099"/>
<polygon fill="black" stroke="black" points="323.755,-263.449 332.533,-257.516 321.971,-256.68 323.755,-263.449"/>
<text text-anchor="middle" x="293.888" y="-276.745" font-family="Times New Roman,serif" font-size="14.00">[&#39;next&#39;]</text>
</g>
<!-- day7no&#45;&gt;overhear -->
<g id="edge4" class="edge"><title>day7no&#45;&gt;overhear</title>
<path fill="none" stroke="black" d="M251.998,-204.288C273.159,-211.771 300.476,-221.43 323.763,-229.665"/>
<polygon fill="black" stroke="black" points="322.872,-233.062 333.467,-233.096 325.206,-226.462 322.872,-233.062"/>
<text text-anchor="middle" x="293.888" y="-230.745" font-family="Times New Roman,serif" font-size="14.00">[&#39;next&#39;]</text>
</g>
<!-- skiporalday7 -->
<g id="node6" class="node"><title>skiporalday7</title>
<ellipse fill="none" stroke="black" cx="792.662" cy="-239.945" rx="57.3905" ry="57.3905"/>
<text text-anchor="middle" x="792.662" y="-236.245" font-family="Times New Roman,serif" font-size="14.00">skiporalday7</text>
</g>
<!-- overhear&#45;&gt;skiporalday7 -->
<g id="edge6" class="edge"><title>overhear&#45;&gt;skiporalday7</title>
<path fill="none" stroke="black" d="M416.303,-247.976C471.968,-249.151 573.665,-250.589 660.467,-247.945 681.637,-247.3 704.701,-246.072 725.503,-244.767"/>
<polygon fill="black" stroke="black" points="725.76,-248.258 735.515,-244.123 725.311,-241.272 725.76,-248.258"/>
<text text-anchor="middle" x="587.674" y="-253.745" font-family="Times New Roman,serif" font-size="14.00">[&#39;skip&#39;]</text>
</g>
<!-- continueoralday7 -->
<g id="node7" class="node"><title>continueoralday7</title>
<ellipse fill="none" stroke="black" cx="587.674" cy="-165.945" rx="72.5877" ry="72.5877"/>
<text text-anchor="middle" x="587.674" y="-162.245" font-family="Times New Roman,serif" font-size="14.00">continueoralday7</text>
</g>
<!-- overhear&#45;&gt;continueoralday7 -->
<g id="edge7" class="edge"><title>overhear&#45;&gt;continueoralday7</title>
<path fill="none" stroke="black" d="M413.525,-232.089C440.403,-221.821 477.059,-207.818 509.725,-195.34"/>
<polygon fill="black" stroke="black" points="511.176,-198.532 519.269,-191.694 508.678,-191.993 511.176,-198.532"/>
<text text-anchor="middle" x="465.38" y="-227.745" font-family="Times New Roman,serif" font-size="14.00">[&#39;continue&#39;]</text>
</g>
<!-- sleepday7 -->
<g id="node8" class="node"><title>sleepday7</title>
<ellipse fill="none" stroke="black" cx="999.653" cy="-239.945" rx="46.5926" ry="46.5926"/>
<text text-anchor="middle" x="999.653" y="-236.245" font-family="Times New Roman,serif" font-size="14.00">sleepday7</text>
</g>
<!-- skiporalday7&#45;&gt;sleepday7 -->
<g id="edge9" class="edge"><title>skiporalday7&#45;&gt;sleepday7</title>
<path fill="none" stroke="black" d="M849.948,-239.945C878.767,-239.945 913.749,-239.945 942.543,-239.945"/>
<polygon fill="black" stroke="black" points="942.848,-243.445 952.848,-239.945 942.848,-236.445 942.848,-243.445"/>
<text text-anchor="middle" x="901.357" y="-243.745" font-family="Times New Roman,serif" font-size="14.00">[&#39;sex&#39;, &#39;late&#39;]</text>
</g>
<!-- continueoralday7&#45;&gt;skiporalday7 -->
<g id="edge8" class="edge"><title>continueoralday7&#45;&gt;skiporalday7</title>
<path fill="none" stroke="black" d="M656.266,-190.586C679.779,-199.158 706.035,-208.73 729.121,-217.146"/>
<polygon fill="black" stroke="black" points="728.21,-220.539 738.804,-220.675 730.607,-213.962 728.21,-220.539"/>
<text text-anchor="middle" x="697.967" y="-215.745" font-family="Times New Roman,serif" font-size="14.00">[&#39;next&#39;]</text>
</g>
<!-- day8_nolabel -->
<g id="node9" class="node"><title>day8_nolabel</title>
<ellipse fill="none" stroke="black" cx="1180.59" cy="-239.945" rx="59.2899" ry="59.2899"/>
<text text-anchor="middle" x="1180.59" y="-236.245" font-family="Times New Roman,serif" font-size="14.00">day8_nolabel</text>
</g>
<!-- sleepday7&#45;&gt;day8_nolabel -->
<g id="edge10" class="edge"><title>sleepday7&#45;&gt;day8_nolabel</title>
<path fill="none" stroke="black" d="M1046.73,-239.945C1066.31,-239.945 1089.55,-239.945 1111.07,-239.945"/>
<polygon fill="black" stroke="black" points="1111.14,-243.445 1121.14,-239.945 1111.14,-236.445 1111.14,-243.445"/>
<text text-anchor="middle" x="1083.95" y="-243.745" font-family="Times New Roman,serif" font-size="14.00">[&#39;next&#39;]</text>
</g>
<!-- lukasnotgone -->
<g id="node10" class="node"><title>lukasnotgone</title>
<ellipse fill="none" stroke="black" cx="1444.23" cy="-322.945" rx="58.4896" ry="58.4896"/>
<text text-anchor="middle" x="1444.23" y="-319.245" font-family="Times New Roman,serif" font-size="14.00">lukasnotgone</text>
</g>
<!-- day8_nolabel&#45;&gt;lukasnotgone -->
<g id="edge11" class="edge"><title>day8_nolabel&#45;&gt;lukasnotgone</title>
<path fill="none" stroke="black" d="M1237.08,-257.547C1278.5,-270.687 1335.2,-288.674 1378.66,-302.459"/>
<polygon fill="black" stroke="black" points="1377.69,-305.823 1388.28,-305.511 1379.8,-299.151 1377.69,-305.823"/>
<text text-anchor="middle" x="1312.74" y="-302.745" font-family="Times New Roman,serif" font-size="14.00">[&#39;luka_points_+_3&#39;]</text>
</g>
<!-- lukasgone -->
<g id="node11" class="node"><title>lukasgone</title>
<ellipse fill="none" stroke="black" cx="1444.23" cy="-199.945" rx="46.5926" ry="46.5926"/>
<text text-anchor="middle" x="1444.23" y="-196.245" font-family="Times New Roman,serif" font-size="14.00">lukasgone</text>
</g>
<!-- day8_nolabel&#45;&gt;lukasgone -->
<g id="edge12" class="edge"><title>day8_nolabel&#45;&gt;lukasgone</title>
<path fill="none" stroke="black" d="M1239.34,-231.118C1283.5,-224.366 1344.02,-215.112 1387.64,-208.444"/>
<polygon fill="black" stroke="black" points="1388.44,-211.863 1397.79,-206.892 1387.38,-204.944 1388.44,-211.863"/>
<text text-anchor="middle" x="1312.74" y="-232.745" font-family="Times New Roman,serif" font-size="14.00">[&#39;luka_points_&#45;_3&#39;]</text>
</g>
<!-- headtoart -->
<g id="node12" class="node"><title>headtoart</title>
<ellipse fill="none" stroke="black" cx="1621.92" cy="-270.945" rx="44.393" ry="44.393"/>
<text text-anchor="middle" x="1621.92" y="-267.245" font-family="Times New Roman,serif" font-size="14.00">headtoart</text>
</g>
<!-- lukasnotgone&#45;&gt;headtoart -->
<g id="edge13" class="edge"><title>lukasnotgone&#45;&gt;headtoart</title>
<path fill="none" stroke="black" d="M1500.82,-306.492C1522.88,-299.964 1548.09,-292.503 1569.69,-286.108"/>
<polygon fill="black" stroke="black" points="1570.75,-289.446 1579.34,-283.252 1568.76,-282.734 1570.75,-289.446"/>
<text text-anchor="middle" x="1540.23" y="-304.745" font-family="Times New Roman,serif" font-size="14.00">[&#39;next&#39;]</text>
</g>
<!-- lukasgone&#45;&gt;headtoart -->
<g id="edge14" class="edge"><title>lukasgone&#45;&gt;headtoart</title>
<path fill="none" stroke="black" d="M1487.76,-217.132C1512.91,-227.294 1544.87,-240.212 1571.18,-250.844"/>
<polygon fill="black" stroke="black" points="1570.01,-254.146 1580.6,-254.648 1572.64,-247.656 1570.01,-254.146"/>
<text text-anchor="middle" x="1540.23" y="-250.745" font-family="Times New Roman,serif" font-size="14.00">[&#39;next&#39;]</text>
</g>
<!-- giftmaking -->
<g id="node13" class="node"><title>giftmaking</title>
<ellipse fill="none" stroke="black" cx="1905.22" cy="-270.945" rx="48.1917" ry="48.1917"/>
<text text-anchor="middle" x="1905.22" y="-267.245" font-family="Times New Roman,serif" font-size="14.00">giftmaking</text>
</g>
<!-- headtoart&#45;&gt;giftmaking -->
<g id="edge15" class="edge"><title>headtoart&#45;&gt;giftmaking</title>
<path fill="none" stroke="black" d="M1666.26,-270.945C1714.76,-270.945 1793.54,-270.945 1847.06,-270.945"/>
<polygon fill="black" stroke="black" points="1847.07,-274.445 1857.07,-270.945 1847.07,-267.445 1847.07,-274.445"/>
<text text-anchor="middle" x="1761.62" y="-274.745" font-family="Times New Roman,serif" font-size="14.00">[&#39;steven&#39;, &#39;lukas&#39;, &#39;pumpkin&#39;]</text>
</g>
<!-- mini_game_draw -->
<g id="node14" class="node"><title>mini_game_draw</title>
<ellipse fill="none" stroke="black" cx="2158.11" cy="-406.945" rx="72.5877" ry="72.5877"/>
<text text-anchor="middle" x="2158.11" y="-403.245" font-family="Times New Roman,serif" font-size="14.00">mini_game_draw</text>
</g>
<!-- giftmaking&#45;&gt;mini_game_draw -->
<g id="edge16" class="edge"><title>giftmaking&#45;&gt;mini_game_draw</title>
<path fill="none" stroke="black" d="M1929.39,-313.139C1940.19,-329.294 1954.42,-346.557 1971.31,-357.945 2002.03,-378.65 2041.05,-390.612 2075.4,-397.521"/>
<polygon fill="black" stroke="black" points="2074.94,-400.997 2085.42,-399.423 2076.25,-394.12 2074.94,-400.997"/>
<text text-anchor="middle" x="2019.31" y="-398.745" font-family="Times New Roman,serif" font-size="14.00">[&#39;next&#39;]</text>
</g>
<!-- giftsteven -->
<g id="node15" class="node"><title>giftsteven</title>
<ellipse fill="none" stroke="black" cx="2158.11" cy="-270.945" rx="45.4919" ry="45.4919"/>
<text text-anchor="middle" x="2158.11" y="-267.245" font-family="Times New Roman,serif" font-size="14.00">giftsteven</text>
</g>
<!-- giftmaking&#45;&gt;giftsteven -->
<g id="edge18" class="edge"><title>giftmaking&#45;&gt;giftsteven</title>
<path fill="none" stroke="black" d="M1953.41,-270.945C1995.68,-270.945 2057.69,-270.945 2102.18,-270.945"/>
<polygon fill="black" stroke="black" points="2102.24,-274.445 2112.24,-270.945 2102.24,-267.445 2102.24,-274.445"/>
<text text-anchor="middle" x="2019.31" y="-274.745" font-family="Times New Roman,serif" font-size="14.00">[&#39;steven&#39;]</text>
</g>
<!-- giftlukas -->
<g id="node16" class="node"><title>giftlukas</title>
<ellipse fill="none" stroke="black" cx="2158.11" cy="-166.945" rx="40.8928" ry="40.8928"/>
<text text-anchor="middle" x="2158.11" y="-163.245" font-family="Times New Roman,serif" font-size="14.00">giftlukas</text>
</g>
<!-- giftmaking&#45;&gt;giftlukas -->
<g id="edge19" class="edge"><title>giftmaking&#45;&gt;giftlukas</title>
<path fill="none" stroke="black" d="M1949.92,-252.83C1994.87,-234.194 2064.64,-205.274 2110.6,-186.223"/>
<polygon fill="black" stroke="black" points="2112.13,-189.378 2120.03,-182.315 2109.45,-182.911 2112.13,-189.378"/>
<text text-anchor="middle" x="2019.31" y="-247.745" font-family="Times New Roman,serif" font-size="14.00">[&#39;lukas&#39;]</text>
</g>
<!-- giftpumpkin -->
<g id="node17" class="node"><title>giftpumpkin</title>
<ellipse fill="none" stroke="black" cx="2158.11" cy="-53.9452" rx="53.8905" ry="53.8905"/>
<text text-anchor="middle" x="2158.11" y="-50.2452" font-family="Times New Roman,serif" font-size="14.00">giftpumpkin</text>
</g>
<!-- giftmaking&#45;&gt;giftpumpkin -->
<g id="edge20" class="edge"><title>giftmaking&#45;&gt;giftpumpkin</title>
<path fill="none" stroke="black" d="M1933.28,-231.864C1944.26,-217.311 1957.58,-201.139 1971.31,-187.945 2011.84,-149.014 2064.24,-112.232 2103.05,-87.0896"/>
<polygon fill="black" stroke="black" points="2105.09,-89.9387 2111.61,-81.5888 2101.31,-84.0493 2105.09,-89.9387"/>
<text text-anchor="middle" x="2019.31" y="-191.745" font-family="Times New Roman,serif" font-size="14.00">[&#39;pumpkin&#39;]</text>
</g>
<!-- mini_game_draw&#45;&gt;giftmaking -->
<g id="edge17" class="edge"><title>mini_game_draw&#45;&gt;giftmaking</title>
<path fill="none" stroke="black" d="M2101.1,-361.196C2090.21,-353.279 2078.66,-345.498 2067.31,-338.945 2033.36,-319.337 1992.67,-302.207 1960.68,-290.045"/>
<polygon fill="black" stroke="black" points="1961.64,-286.667 1951.05,-286.433 1959.18,-293.222 1961.64,-286.667"/>
<text text-anchor="middle" x="2019.31" y="-342.745" font-family="Times New Roman,serif" font-size="14.00">[&#39;end_minigame&#39;]</text>
</g>
<!-- day8end -->
<g id="node18" class="node"><title>day8end</title>
<ellipse fill="none" stroke="black" cx="2347.5" cy="-166.945" rx="41.6928" ry="41.6928"/>
<text text-anchor="middle" x="2347.5" y="-163.245" font-family="Times New Roman,serif" font-size="14.00">day8end</text>
</g>
<!-- giftsteven&#45;&gt;day8end -->
<g id="edge21" class="edge"><title>giftsteven&#45;&gt;day8end</title>
<path fill="none" stroke="black" d="M2198.39,-249.143C2228.57,-232.392 2270.28,-209.242 2301.75,-191.778"/>
<polygon fill="black" stroke="black" points="2303.7,-194.697 2310.75,-186.784 2300.31,-188.576 2303.7,-194.697"/>
<text text-anchor="middle" x="2268.4" y="-222.745" font-family="Times New Roman,serif" font-size="14.00">[&#39;next&#39;]</text>
</g>
<!-- giftlukas&#45;&gt;day8end -->
<g id="edge22" class="edge"><title>giftlukas&#45;&gt;day8end</title>
<path fill="none" stroke="black" d="M2199.31,-166.945C2227.4,-166.945 2265.13,-166.945 2295.36,-166.945"/>
<polygon fill="black" stroke="black" points="2295.72,-170.445 2305.72,-166.945 2295.72,-163.445 2295.72,-170.445"/>
<text text-anchor="middle" x="2268.4" y="-170.745" font-family="Times New Roman,serif" font-size="14.00">[&#39;next&#39;]</text>
</g>
<!-- giftpumpkin&#45;&gt;day8end -->
<g id="edge23" class="edge"><title>giftpumpkin&#45;&gt;day8end</title>
<path fill="none" stroke="black" d="M2204.95,-81.5881C2234.7,-99.5298 2273.25,-122.778 2302.61,-140.481"/>
<polygon fill="black" stroke="black" points="2301.03,-143.618 2311.4,-145.785 2304.65,-137.623 2301.03,-143.618"/>
<text text-anchor="middle" x="2268.4" y="-134.745" font-family="Times New Roman,serif" font-size="14.00">[&#39;next&#39;]</text>
</g>
<!-- day9 -->
<g id="node19" class="node"><title>day9</title>
<ellipse fill="none" stroke="black" cx="2492.69" cy="-166.945" rx="28.6953" ry="28.6953"/>
<text text-anchor="middle" x="2492.69" y="-163.245" font-family="Times New Roman,serif" font-size="14.00">day9</text>
</g>
<!-- day8end&#45;&gt;day9 -->
<g id="edge24" class="edge"><title>day8end&#45;&gt;day9</title>
<path fill="none" stroke="black" d="M2389.15,-166.945C2409.33,-166.945 2433.58,-166.945 2453.43,-166.945"/>
<polygon fill="black" stroke="black" points="2453.65,-170.445 2463.65,-166.945 2453.65,-163.445 2453.65,-170.445"/>
<text text-anchor="middle" x="2426.59" y="-170.745" font-family="Times New Roman,serif" font-size="14.00">[&#39;next&#39;]</text>
</g>
</g>
</svg>
