<?xml version="1.0" encoding="UTF-8" standalone="no"?>
<!DOCTYPE svg PUBLIC "-//W3C//DTD SVG 1.1//EN"
 "http://www.w3.org/Graphics/SVG/1.1/DTD/svg11.dtd">
<!-- Generated by graphviz version 2.38.0 (20140413.2041)
 -->
<!-- Title: FSM Pages: 1 -->
<svg width="576pt" height="114pt"
 viewBox="0.00 0.00 576.00 114.17" xmlns="http://www.w3.org/2000/svg" xmlns:xlink="http://www.w3.org/1999/xlink">
<g id="graph0" class="graph" transform="scale(0.389675 0.389675) rotate(0) translate(4 288.995)">
<title>FSM</title>
<polygon fill="white" stroke="none" points="-4,4 -4,-288.995 1474.15,-288.995 1474.15,4 -4,4"/>
<!-- day9 -->
<g id="node1" class="node"><title>day9</title>
<ellipse fill="none" stroke="black" cx="73.1975" cy="-201.995" rx="28.6832" ry="28.6832"/>
<ellipse fill="none" stroke="black" cx="73.1975" cy="-201.995" rx="32.6952" ry="32.6952"/>
<text text-anchor="middle" x="73.1975" y="-198.295" font-family="Times New Roman,serif" font-size="14.00">day9</text>
</g>
<!-- day10 -->
<g id="node3" class="node"><title>day10</title>
<ellipse fill="none" stroke="black" cx="1437.66" cy="-181.995" rx="32.4942" ry="32.4942"/>
<text text-anchor="middle" x="1437.66" y="-178.295" font-family="Times New Roman,serif" font-size="14.00">day10</text>
</g>
<!-- day9&#45;&gt;day10 -->
<g id="edge2" class="edge"><title>day9&#45;&gt;day10</title>
<path fill="none" stroke="black" d="M100.04,-220.577C130.64,-240.71 183.889,-269.995 234.741,-269.995 234.741,-269.995 234.741,-269.995 1271.37,-269.995 1322.85,-269.995 1373.88,-236.326 1405.33,-210.64"/>
<polygon fill="black" stroke="black" points="1407.86,-213.082 1413.27,-203.975 1403.36,-207.719 1407.86,-213.082"/>
<text text-anchor="middle" x="855.28" y="-273.795" font-family="Times New Roman,serif" font-size="14.00">[&#39;pumpkin_points_&#45;_2&#39;]</text>
</g>
<!-- cuddleday9 -->
<g id="node4" class="node"><title>cuddleday9</title>
<ellipse fill="none" stroke="black" cx="480.188" cy="-201.995" rx="52.7911" ry="52.7911"/>
<text text-anchor="middle" x="480.188" y="-198.295" font-family="Times New Roman,serif" font-size="14.00">cuddleday9</text>
</g>
<!-- day9&#45;&gt;cuddleday9 -->
<g id="edge3" class="edge"><title>day9&#45;&gt;cuddleday9</title>
<path fill="none" stroke="black" d="M105.976,-201.995C172.97,-201.995 329.711,-201.995 417.259,-201.995"/>
<polygon fill="black" stroke="black" points="417.323,-205.495 427.323,-201.995 417.323,-198.495 417.323,-205.495"/>
<text text-anchor="middle" x="150.295" y="-205.795" font-family="Times New Roman,serif" font-size="14.00">[&#39;cuddle&#39;]</text>
</g>
<!-- talkday9 -->
<g id="node5" class="node"><title>talkday9</title>
<ellipse fill="none" stroke="black" cx="235.741" cy="-130.995" rx="40.8928" ry="40.8928"/>
<text text-anchor="middle" x="235.741" y="-127.295" font-family="Times New Roman,serif" font-size="14.00">talkday9</text>
</g>
<!-- day9&#45;&gt;talkday9 -->
<g id="edge4" class="edge"><title>day9&#45;&gt;talkday9</title>
<path fill="none" stroke="black" d="M98.5824,-181.206C106.288,-175.368 115.075,-169.415 123.795,-164.995 143.164,-155.177 165.891,-147.6 185.715,-142.116"/>
<polygon fill="black" stroke="black" points="186.721,-145.47 195.484,-139.515 184.92,-138.706 186.721,-145.47"/>
<text text-anchor="middle" x="150.295" y="-168.795" font-family="Times New Roman,serif" font-size="14.00">[&#39;talk&#39;]</text>
</g>
<!-- qi -->
<g id="node2" class="node"><title>qi</title>
<ellipse fill="black" stroke="black" cx="1.8" cy="-201.995" rx="1.8" ry="1.8"/>
</g>
<!-- qi&#45;&gt;day9 -->
<g id="edge1" class="edge"><title>qi&#45;&gt;day9</title>
<path fill="none" stroke="black" d="M3.78102,-201.995C7.02443,-201.995 17.8893,-201.995 30.035,-201.995"/>
<polygon fill="black" stroke="black" points="30.3993,-205.495 40.3993,-201.995 30.3992,-198.495 30.3993,-205.495"/>
</g>
<!-- heavyday9 -->
<g id="node7" class="node"><title>heavyday9</title>
<ellipse fill="none" stroke="black" cx="989.176" cy="-165.995" rx="49.2915" ry="49.2915"/>
<text text-anchor="middle" x="989.176" y="-162.295" font-family="Times New Roman,serif" font-size="14.00">heavyday9</text>
</g>
<!-- cuddleday9&#45;&gt;heavyday9 -->
<g id="edge10" class="edge"><title>cuddleday9&#45;&gt;heavyday9</title>
<path fill="none" stroke="black" d="M532.837,-200.062C615.232,-196.702 781.447,-188.788 921.78,-174.995 924.455,-174.732 927.189,-174.444 929.948,-174.136"/>
<polygon fill="black" stroke="black" points="930.473,-177.598 939.993,-172.95 929.652,-170.646 930.473,-177.598"/>
<text text-anchor="middle" x="727.234" y="-196.795" font-family="Times New Roman,serif" font-size="14.00">[&#39;next&#39;]</text>
</g>
<!-- nextday9 -->
<g id="node6" class="node"><title>nextday9</title>
<ellipse fill="none" stroke="black" cx="727.234" cy="-124.995" rx="43.5923" ry="43.5923"/>
<text text-anchor="middle" x="727.234" y="-121.295" font-family="Times New Roman,serif" font-size="14.00">nextday9</text>
</g>
<!-- talkday9&#45;&gt;nextday9 -->
<g id="edge5" class="edge"><title>talkday9&#45;&gt;nextday9</title>
<path fill="none" stroke="black" d="M276.599,-126.323C282.651,-125.771 288.829,-125.298 294.688,-124.995 430.919,-117.961 591.664,-120.933 673.14,-123.236"/>
<polygon fill="black" stroke="black" points="673.528,-126.748 683.626,-123.541 673.732,-119.751 673.528,-126.748"/>
<text text-anchor="middle" x="480.188" y="-128.795" font-family="Times New Roman,serif" font-size="14.00">[&#39;lukas_points_+_1&#39;, &#39;steven_points_+_1&#39;, &#39;pumpkin_points_+_1&#39;]</text>
</g>
<!-- nextday9&#45;&gt;heavyday9 -->
<g id="edge6" class="edge"><title>nextday9&#45;&gt;heavyday9</title>
<path fill="none" stroke="black" d="M770.287,-131.628C813.617,-138.463 881.488,-149.168 929.963,-156.814"/>
<polygon fill="black" stroke="black" points="929.574,-160.295 939.997,-158.396 930.664,-153.381 929.574,-160.295"/>
<text text-anchor="middle" x="855.28" y="-159.795" font-family="Times New Roman,serif" font-size="14.00">[&#39;next&#39;]</text>
</g>
<!-- saturdaysleep -->
<g id="node8" class="node"><title>saturdaysleep</title>
<ellipse fill="none" stroke="black" cx="1270.37" cy="-181.995" rx="59.5901" ry="59.5901"/>
<text text-anchor="middle" x="1270.37" y="-178.295" font-family="Times New Roman,serif" font-size="14.00">saturdaysleep</text>
</g>
<!-- heavyday9&#45;&gt;saturdaysleep -->
<g id="edge7" class="edge"><title>heavyday9&#45;&gt;saturdaysleep</title>
<path fill="none" stroke="black" d="M1038.81,-168.782C1083.53,-171.346 1150.32,-175.173 1200.52,-178.05"/>
<polygon fill="black" stroke="black" points="1200.46,-181.552 1210.65,-178.63 1200.86,-174.564 1200.46,-181.552"/>
<text text-anchor="middle" x="1124.57" y="-181.795" font-family="Times New Roman,serif" font-size="14.00">[&#39;pumpkin_points_+_1&#39;]</text>
</g>
<!-- movethings -->
<g id="node9" class="node"><title>movethings</title>
<ellipse fill="none" stroke="black" cx="1270.37" cy="-51.9954" rx="51.9908" ry="51.9908"/>
<text text-anchor="middle" x="1270.37" y="-48.2954" font-family="Times New Roman,serif" font-size="14.00">movethings</text>
</g>
<!-- heavyday9&#45;&gt;movethings -->
<g id="edge8" class="edge"><title>heavyday9&#45;&gt;movethings</title>
<path fill="none" stroke="black" d="M1035.34,-147.553C1083.58,-127.857 1160.13,-96.599 1212.45,-75.2343"/>
<polygon fill="black" stroke="black" points="1213.99,-78.3858 1221.93,-71.3652 1211.35,-71.9052 1213.99,-78.3858"/>
<text text-anchor="middle" x="1124.57" y="-142.795" font-family="Times New Roman,serif" font-size="14.00">[&#39;pumpkin_points_&#45;_1&#39;]</text>
</g>
<!-- saturdaysleep&#45;&gt;day10 -->
<g id="edge9" class="edge"><title>saturdaysleep&#45;&gt;day10</title>
<path fill="none" stroke="black" d="M1330.57,-181.995C1351.77,-181.995 1375.22,-181.995 1394.66,-181.995"/>
<polygon fill="black" stroke="black" points="1394.73,-185.495 1404.73,-181.995 1394.72,-178.495 1394.73,-185.495"/>
<text text-anchor="middle" x="1367.66" y="-185.795" font-family="Times New Roman,serif" font-size="14.00">[&#39;next&#39;]</text>
</g>
<!-- movethings&#45;&gt;day10 -->
<g id="edge11" class="edge"><title>movethings&#45;&gt;day10</title>
<path fill="none" stroke="black" d="M1311.8,-83.797C1339.92,-105.909 1376.94,-135.027 1403.35,-155.802"/>
<polygon fill="black" stroke="black" points="1401.51,-158.804 1411.53,-162.235 1405.84,-153.302 1401.51,-158.804"/>
<text text-anchor="middle" x="1367.66" y="-147.795" font-family="Times New Roman,serif" font-size="14.00">[&#39;next&#39;]</text>
</g>
</g>
</svg>
